#!OML:ASF E:\Steps\Project 1\Capture day 1\Session 2\Subject.ASF
:FULLY-SPECIFIED
:DEGREES
3357
root 8.50981 16.6177 5.65399 22.9472 -0.90632 7.41996
lowerback -20.0932 -5.76345 -2.73008
upperback 2.3502 -7.0404 0.147594
thorax 14.3342 -3.43612 -0.559184
lowerneck -4.10731 1.20768 -5.64682
upperneck 24.4089 1.55272 3.20941
head 8.1341 0.489063 2.15473
rclavicle -2.90226e-014 1.47101e-014
rhumerus -43.3035 -16.2114 -64.4347
rradius 34.9829
rwrist 2.43594
rhand -2.97669 -777.902
rfingers 7.12502
rthumb 22.7363 993.418
lclavicle -2.90226e-014 1.47101e-014
lhumerus -14.3509 -19.9914 70.7004
lradius 50.255
lwrist -1.63326
lhand -18.9695 -15.2904
lfingers 7.12502
lthumb 7.33461 -345.438
rfemur -22.67 1.34978 13.2025
rtibia 11.5638
rfoot 340.428 -6.30438
rtoes -15.8675
lfemur -32.6539 -7.01484 -16.9857
ltibia 25.7856
lfoot 355.333 -1.66778
ltoes -29.0555
3358
root 8.55584 16.6155 5.65536 23.2235 -0.638509 7.16871
lowerback -20.0884 -5.69185 -2.52257
upperback 2.25483 -7.01459 0.28289
thorax 14.2097 -3.41681 -0.506604
lowerneck -3.81436 1.145 -5.86863
upperneck 24.3351 1.42774 3.42855
head 8.05728 0.430871 2.25197
rclavicle -5.96354e-014 5.76476e-015
rhumerus -43.8124 -16.0416 -64.5482
rradius 35.1117
rwrist 1.84585
rhand -2.92481 -777.971
rfingers 7.12502
rthumb 22.7861 993.355
lclavicle -5.96354e-014 5.76476e-015
lhumerus -14.2361 -20.6526 70.946
lradius 50.4238
lwrist -1.94352
lhand -18.8402 -15.3717
lfingers 7.12502
lthumb 7.45942 -345.523
rfemur -22.9585 1.39728 13.3008
rtibia 11.6346
rfoot 340.425 -6.74768
rtoes -16.9532
lfemur -32.0822 -6.99574 -16.9168
ltibia 24.4516
lfoot 355.543 -1.53504
ltoes -29.3929
3359
root 8.60144 16.6096 5.65808 23.462 -0.47674 7.05999
lowerback -20.0981 -5.71775 -2.52928
upperback 2.27319 -7.05529 0.338768
thorax 14.2473 -3.43839 -0.456062
lowerneck -3.794 1.019 -6.02811
upperneck 24.3233 1.21599 3.67832
head 8.05593 0.339656 2.3465
rclavicle 1.39149e-014 2.18663e-015
rhumerus -43.982 -16.2573 -64.7938
rradius 35.2064
rwrist 1.92793
rhand -2.89261 -777.878
rfingers 7.12502
rthumb 22.817 993.452
lclavicle 1.39149e-014 2.18663e-015
lhumerus -13.8887 -21.0664 70.8601
lradius 50.539
lwrist -2.14188
lhand -18.7036 -15.192
lfingers 7.12502
lthumb 7.59125 -345.348
rfemur -23.2392 1.32035 13.2299
rtibia 11.7401
rfoot 340.434 -6.85927
rtoes -17.062
lfemur -31.6009 -6.8786 -17.0622
ltibia 23.4125
lfoot 355.727 -1.59376
ltoes -29.5294
3360
root 8.64767 16.6045 5.65772 23.6158 -0.402573 7.02273
lowerback -20.0108 -5.72927 -2.67481
upperback 2.33338 -7.04205 0.369002
thorax 14.2903 -3.44599 -0.333355
lowerneck -3.83624 0.81465 -6.03873
upperneck 24.4162 0.954824 3.59632
head 8.11053 0.207002 2.30323
rclavicle -2.75317e-014 4.96962e-015
rhumerus -44.1446 -16.5007 -65.0385
rradius 35.3855
rwrist 2.15103
rhand -3.00229 -777.446
rfingers 7.12502
rthumb 22.7118 993.871
lclavicle -2.75317e-014 4.96962e-015
lhumerus -13.4555 -21.5438 70.7086
lradius 50.6395
lwrist -2.16751
lhand -18.7679 -15.073
lfingers 7.12502
lthumb 7.52915 -345.227
rfemur -23.4284 1.31841 13.0469
rtibia 11.8071
rfoot 340.422 -6.98393
rtoes -17.1798
lfemur -31.0618 -6.81118 -17.284
ltibia 22.3985
lfoot 355.685 -1.65775
ltoes -27.4578
3361
root 8.69712 16.6005 5.65926 23.7804 -0.272972 6.84378
lowerback -20.0843 -5.69571 -2.66538
upperback 2.46234 -7.00939 0.444727
thorax 14.495 -3.43192 -0.258625
lowerneck -3.97931 0.628658 -5.99863
upperneck 24.2017 0.697494 3.63911
head 8.07732 0.0982113 2.28875
rclavicle 1.49089e-014 -7.95139e-015
rhumerus -44.1736 -16.3846 -65.4214
rradius 35.5823
rwrist 1.9541
rhand -2.82728 -777.14
rfingers 7.12502
rthumb 22.8797 994.198
lclavicle 1.49089e-014 -7.95139e-015
lhumerus -12.9562 -21.9293 70.6731
lradius 50.7125
lwrist -2.40995
lhand -18.8176 -15.0728
lfingers 7.12502
lthumb 7.48121 -345.225
rfemur -23.5917 1.26844 13.0713
rtibia 11.8599
rfoot 340.389 -7.11649
rtoes -17.9687
lfemur -30.4745 -6.72731 -17.3213
ltibia 21.1534
lfoot 355.594 -1.6198
ltoes -23.8365
3362
root 8.7436 16.5908 5.65921 24.2151 -0.0782578 6.61929
lowerback -20.4391 -5.65973 -2.5694
upperback 2.4675 -6.98588 0.520919
thorax 14.708 -3.41173 -0.25238
lowerneck -3.8545 0.546047 -5.65808
upperneck 23.9421 0.597677 3.375
head 7.97568 0.0605195 2.12959
rclavicle -2.42517e-014 1.27222e-014
rhumerus -44.2331 -16.2401 -65.8122
rradius 35.6039
rwrist 1.80049
rhand -2.44425 -776.816
rfingers 7.12502
rthumb 23.2472 994.567
lclavicle -2.42517e-014 1.27222e-014
lhumerus -12.6335 -22.1681 70.7288
lradius 50.7923
lwrist -2.99571
lhand -18.7126 -15.2058
lfingers 7.12502
lthumb 7.58261 -345.362
rfemur -24.0449 1.13997 13.1767
rtibia 11.9156
rfoot 340.344 -7.32678
rtoes -19.0382
lfemur -30.2596 -6.36834 -17.2894
ltibia 19.9303
lfoot 355.518 -1.83399
ltoes -22.927
3363
root 8.79572 16.5803 5.65723 24.5754 0.194918 6.33271
lowerback -20.6476 -5.60374 -2.25792
upperback 2.46907 -6.98647 0.530391
thorax 14.7933 -3.38391 -0.433608
lowerneck -3.91708 0.510023 -5.22883
upperneck 23.7974 0.536708 3.22191
head 7.94297 0.0579119 1.99894
rclavicle -3.926e-015 -1.94809e-014
rhumerus -44.3591 -16.3225 -66.2555
rradius 35.7075
rwrist 1.94517
rhand -2.50608 -776.807
rfingers 7.12502
rthumb 23.1879 994.569
lclavicle -3.926e-015 -1.94809e-014
lhumerus -12.3723 -22.3864 70.6467
lradius 50.8887
lwrist -3.50721
lhand -18.6493 -15.4862
lfingers 7.12502
lthumb 7.64362 -345.644
rfemur -24.4019 0.70694 13.4154
rtibia 11.97
rfoot 340.299 -7.23889
rtoes -19.9411
lfemur -30.0367 -6.04225 -17.2013
ltibia 18.7946
lfoot 355.448 -2.15902
ltoes -20.3389
3364
root 8.84652 16.5809 5.68298 24.1397 -0.0107347 6.07718
lowerback -20.4794 -5.43926 -2.19675
upperback 2.81074 -6.78187 0.464471
thorax 15.0783 -3.28108 -0.478278
lowerneck -3.39955 0.224562 -5.91884
upperneck 23.096 -0.0497778 4.41454
head 7.63458 -0.169424 2.45622
rclavicle 2.64881e-014 2.24627e-014
rhumerus -44.3678 -16.2983 -66.7759
rradius 36.0091
rwrist 1.90855
rhand -2.63574 -777.173
rfingers 7.12502
rthumb 23.0635 994.187
lclavicle 2.64881e-014 2.24627e-014
lhumerus -11.8667 -22.7 70.4092
lradius 50.9081
lwrist -3.63167
lhand -18.5978 -15.7899
lfingers 7.12502
lthumb 7.69334 -345.95
rfemur -23.8691 0.67648 13.456
rtibia 11.9138
rfoot 340.252 -6.9269
rtoes -20.4155
lfemur -28.5697 -6.02138 -17.1906
ltibia 17.173
lfoot 355.223 -1.85392
ltoes -15.9251
3365
root 8.89278 16.5757 5.67944 24.2651 0.121918 6.0046
lowerback -20.384 -5.46981 -2.42518
upperback 2.84978 -6.78127 0.560776
thorax 15.1114 -3.30667 -0.236884
lowerneck -3.16088 0.0124898 -6.07655
upperneck 22.8005 -0.345875 4.48774
head 7.51096 -0.315584 2.48053
rclavicle 2.9122e-014 7.15625e-015
rhumerus -44.4577 -15.8361 -67.2526
rradius 36.3961
rwrist 1.44727
rhand -2.71034 -777.13
rfingers 7.12502
rthumb 22.9919 994.221
lclavicle 2.9122e-014 7.15625e-015
lhumerus -11.4825 -22.9581 70.379
lradius 50.879
lwrist -3.60175
lhand -18.6056 -16.0022
lfingers 7.12502
lthumb 7.68587 -346.162
rfemur -24.0183 0.642151 13.3329
rtibia 12.0145
rfoot 340.133 -7.06654
rtoes -20.8533
lfemur -28.1884 -6.10556 -17.2265
ltibia 16.0553
lfoot 355.136 -1.77884
ltoes -15.6733
